<?xml version="1.0" encoding="UTF-8"?>
<!DOCTYPE svg PUBLIC "-//W3C//DTD SVG 1.1//EN" "http://www.w3.org/Graphics/SVG/1.1/DTD/svg11.dtd">
<svg xmlns="http://www.w3.org/2000/svg" version="1.1" width="640px"
     height="640px"
     style="shape-rendering:geometricPrecision; text-rendering:geometricPrecision; image-rendering:optimizeQuality; fill-rule:evenodd; clip-rule:evenodd">
    <g>
        <path style="opacity:1" fill="#25d1a6"
              d="M -0.5,-0.5 C 212.833,-0.5 426.167,-0.5 639.5,-0.5C 639.5,212.833 639.5,426.167 639.5,639.5C 618.5,639.5 597.5,639.5 576.5,639.5C 556.276,604.058 535.776,568.725 515,533.5C 503.667,510.833 492.333,488.167 481,465.5C 480.833,360.333 480.333,255.333 479.5,150.5C 477.798,145.959 474.798,142.459 470.5,140C 366.833,139.333 263.167,139.333 159.5,140C 157.044,142.408 155.211,145.241 154,148.5C 153.333,262.167 153.333,375.833 154,489.5C 155.416,494.364 158.249,498.03 162.5,500.5C 252.999,501.333 343.666,501.833 434.5,502C 445.458,518.748 456.291,535.582 467,552.5C 481.527,581.553 496.027,610.553 510.5,639.5C 340.167,639.5 169.833,639.5 -0.5,639.5C -0.5,426.167 -0.5,212.833 -0.5,-0.5 Z"/>
    </g>
    <g>
        <path style="opacity:1" fill="#fefefe"
              d="M 479.5,150.5 C 479.667,254.167 479.5,357.834 479,461.5C 473.98,450.788 468.48,440.454 462.5,430.5C 448.487,417.822 434.153,405.489 419.5,393.5C 424.64,392.512 429.974,392.179 435.5,392.5C 435.5,386.167 435.5,379.833 435.5,373.5C 423.167,373.5 410.833,373.5 398.5,373.5C 396.243,369.987 393.743,366.653 391,363.5C 388.786,363.846 387.286,365.012 386.5,367C 387.906,368.978 388.906,371.145 389.5,373.5C 327.5,373.5 265.5,373.5 203.5,373.5C 203.5,379.833 203.5,386.167 203.5,392.5C 268.167,392.5 332.833,392.5 397.5,392.5C 399.726,406.853 402.059,421.187 404.5,435.5C 404.5,435.833 404.5,436.167 404.5,436.5C 337.5,436.5 270.5,436.5 203.5,436.5C 203.5,443.167 203.5,449.833 203.5,456.5C 271.833,456.5 340.167,456.5 408.5,456.5C 408.5,457.5 408.5,458.5 408.5,459.5C 416.143,473.335 424.476,486.835 433.5,500C 343.167,500.5 252.834,500.667 162.5,500.5C 158.249,498.03 155.416,494.364 154,489.5C 153.333,375.833 153.333,262.167 154,148.5C 155.211,145.241 157.044,142.408 159.5,140C 263.167,139.333 366.833,139.333 470.5,140C 474.798,142.459 477.798,145.959 479.5,150.5 Z"/>
    </g>
    <g>
        <path style="opacity:1" fill="#26d1a6"
              d="M 203.5,183.5 C 280.833,183.5 358.167,183.5 435.5,183.5C 435.5,189.833 435.5,196.167 435.5,202.5C 358.167,202.5 280.833,202.5 203.5,202.5C 203.5,196.167 203.5,189.833 203.5,183.5 Z"/>
    </g>
    <g>
        <path style="opacity:1" fill="#25d1a5"
              d="M 435.5,247.5 C 435.5,253.5 435.5,259.5 435.5,265.5C 358.5,265.5 281.5,265.5 204.5,265.5C 204.5,259.5 204.5,253.5 204.5,247.5C 281.5,247.5 358.5,247.5 435.5,247.5 Z"/>
    </g>
    <g>
        <path style="opacity:1" fill="#6fe1c4"
              d="M 435.5,247.5 C 358.5,247.5 281.5,247.5 204.5,247.5C 204.5,253.5 204.5,259.5 204.5,265.5C 281.5,265.5 358.5,265.5 435.5,265.5C 358.335,266.499 281.002,266.833 203.5,266.5C 203.5,259.833 203.5,253.167 203.5,246.5C 281.002,246.167 358.335,246.501 435.5,247.5 Z"/>
    </g>
    <g>
        <path style="opacity:1" fill="#26d1a6"
              d="M 203.5,310.5 C 280.833,310.5 358.167,310.5 435.5,310.5C 435.5,316.833 435.5,323.167 435.5,329.5C 358.167,329.5 280.833,329.5 203.5,329.5C 203.5,323.167 203.5,316.833 203.5,310.5 Z"/>
    </g>
    <g>
        <path style="opacity:1" fill="#92e8d3"
              d="M 398.5,373.5 C 400.833,376.833 403.167,380.167 405.5,383.5C 403.343,385.412 401.009,387.079 398.5,388.5C 395.248,383.666 392.248,378.666 389.5,373.5C 388.906,371.145 387.906,368.978 386.5,367C 387.286,365.012 388.786,363.846 391,363.5C 393.743,366.653 396.243,369.987 398.5,373.5 Z"/>
    </g>
    <g>
        <path style="opacity:1" fill="#26d1a6"
              d="M 389.5,373.5 C 392.248,378.666 395.248,383.666 398.5,388.5C 396.507,389.472 396.174,390.805 397.5,392.5C 332.833,392.5 268.167,392.5 203.5,392.5C 203.5,386.167 203.5,379.833 203.5,373.5C 265.5,373.5 327.5,373.5 389.5,373.5 Z"/>
    </g>
    <g>
        <path style="opacity:1" fill="#25d1a6"
              d="M 398.5,373.5 C 410.833,373.5 423.167,373.5 435.5,373.5C 435.5,379.833 435.5,386.167 435.5,392.5C 429.974,392.179 424.64,392.512 419.5,393.5C 416,390.169 412.334,387.002 408.5,384C 407.552,383.517 406.552,383.351 405.5,383.5C 403.167,380.167 400.833,376.833 398.5,373.5 Z"/>
    </g>
    <g>
        <path style="opacity:1" fill="#0fc193"
              d="M 405.5,383.5 C 406.552,383.351 407.552,383.517 408.5,384C 412.334,387.002 416,390.169 419.5,393.5C 434.153,405.489 448.487,417.822 462.5,430.5C 445.17,440.97 427.67,451.303 410,461.5C 409.722,460.584 409.222,459.918 408.5,459.5C 408.5,458.5 408.5,457.5 408.5,456.5C 408.5,456.167 408.5,455.833 408.5,455.5C 407.154,448.74 405.821,442.074 404.5,435.5C 402.059,421.187 399.726,406.853 397.5,392.5C 396.174,390.805 396.507,389.472 398.5,388.5C 401.009,387.079 403.343,385.412 405.5,383.5 Z"/>
    </g>
    <g>
        <path style="opacity:1" fill="#90e7d2"
              d="M 479.5,150.5 C 480.333,255.333 480.833,360.333 481,465.5C 492.333,488.167 503.667,510.833 515,533.5C 535.776,568.725 556.276,604.058 576.5,639.5C 554.5,639.5 532.5,639.5 510.5,639.5C 496.027,610.553 481.527,581.553 467,552.5C 456.291,535.582 445.458,518.748 434.5,502C 343.666,501.833 252.999,501.333 162.5,500.5C 252.834,500.667 343.167,500.5 433.5,500C 424.476,486.835 416.143,473.335 408.5,459.5C 409.222,459.918 409.722,460.584 410,461.5C 427.67,451.303 445.17,440.97 462.5,430.5C 468.48,440.454 473.98,450.788 479,461.5C 479.5,357.834 479.667,254.167 479.5,150.5 Z"/>
    </g>
    <g>
        <path style="opacity:1" fill="#24d0a5"
              d="M 404.5,435.5 C 405.821,442.074 407.154,448.74 408.5,455.5C 340.5,455.5 272.5,455.5 204.5,455.5C 204.5,449.5 204.5,443.5 204.5,437.5C 271.335,437.832 338.002,437.499 404.5,436.5C 404.5,436.167 404.5,435.833 404.5,435.5 Z"/>
    </g>
    <g>
        <path style="opacity:1" fill="#6fe1c4"
              d="M 404.5,436.5 C 338.002,437.499 271.335,437.832 204.5,437.5C 204.5,443.5 204.5,449.5 204.5,455.5C 272.5,455.5 340.5,455.5 408.5,455.5C 408.5,455.833 408.5,456.167 408.5,456.5C 340.167,456.5 271.833,456.5 203.5,456.5C 203.5,449.833 203.5,443.167 203.5,436.5C 270.5,436.5 337.5,436.5 404.5,436.5 Z"/>
    </g>
</svg>
